# xmcd
#
# Track frame offsets:
#	150
#	17175
#	27750
#	36975
#	50137
#	61537
#	78150
#	88837
#	102487
#	113887
#	123787
#	135750
#	146925
#	157987
#	175050
#	185662
#
# Disc length: 2603 seconds
#
# Revision: 1
# Processed by: cddbd v1.5.2PL0 Copyright (c) Steve Scherf et al.
# Submitted via: audiograbber 1.83.01
#
DISCID=d00a2910
DTITLE=Various Artist - Nashville Country Club, Vol. 3
DYEAR=1980
DGENRE=Country
TTITLE0=Jeannie C. Riley - If You Could Read My Mind
TTITLE1=Jimmy C. Newman - Corina, Corina
TTITLE2=Roy Drusky - White Lightning Express
TTITLE3=Dave Dudley - Girl On The Billboard
TTITLE4=Hank Locklin - Send Me The Pillow You Dream On
TTITLE5=Dave Dudley - The Last Run
TTITLE6=Hank Locklin - Please Help Me I'm Falling
TTITLE7=Rita Remington - Fairy Tale
TTITLE8=Buddy Harris - Laughter And Failures And Fools
TTITLE9=Johnny Cash - Born To Loose
TTITLE10=Roy Drusky - Three Hearts In A Tangle
TTITLE11=Buddy Harris - Freedom To Roll
TTITLE12=Johnny Cash - I Love You Because
TTITLE13=Jeannie C. Riley - Oh Singer
TTITLE14=Jimmy C. Newman - Cowtown
TTITLE15=Jimmy C. Newman - Lousiana Saturday Night
EXTD=Bellaphon, Germany
EXTT0=
EXTT1=
EXTT2=
EXTT3=
EXTT4=
EXTT5=
EXTT6=
EXTT7=
EXTT8=
EXTT9=
EXTT10=
EXTT11=
EXTT12=
EXTT13=
EXTT14=
EXTT15=
PLAYORDER=
